HIERARCHY
ROOT Hips
{
   OFFSET 0.00000 0.00000 0.00000
   CHANNELS 6 Xposition Yposition Zposition Zrotation Xrotation Yrotation
   JOINT RightUpLeg
   {
      OFFSET -10.734961 -10.400485 0.121982
      CHANNELS 3 Zrotation Xrotation Yrotation
      JOINT RightLeg
      {
         OFFSET 0.000000 -53.307237 1.647240
         CHANNELS 3 Zrotation Xrotation Yrotation
         JOINT RightFoot
         {
            OFFSET 0.304259 -50.510883 -1.752708
            CHANNELS 3 Zrotation Xrotation Yrotation
            JOINT RightToes
            {
               OFFSET 0.048000 -5.298108 10.198920
               CHANNELS 3 Zrotation Xrotation Yrotation
               End Site
               {
                  OFFSET -0.096000 -0.164938 11.735748
               }
            }
         }
      }
   }
   JOINT Spine
   {
      OFFSET 0.000000 14.268601 0.000000
      CHANNELS 3 Zrotation Xrotation Yrotation
      JOINT Spine1
      {
         OFFSET 0.000000 30.788881 0.153196
         CHANNELS 3 Zrotation Xrotation Yrotation
         JOINT HEad
         {
            OFFSET 0.000000 10.480993 0.013609
            CHANNELS 3 Zrotation Xrotation Yrotation
            End Site
            {
               OFFSET -0.348000 15.329041 3.016740
            }
         }
         JOINT LeftShoulder1
         {
            OFFSET 10.788001 -0.434702 -0.264000
            CHANNELS 3 Zrotation Xrotation Yrotation
            JOINT LeftArm
            {
               OFFSET 12.339240 -0.004056 0.386548
               CHANNELS 3 Zrotation Xrotation Yrotation
               JOINT LeftForeArm
               {
                  OFFSET 39.320280 0.118973 -1.709208
                  CHANNELS 3 Zrotation Xrotation Yrotation
                  JOINT LeftHand
                  {
                     OFFSET 33.077163 0.102434 1.226592
                     CHANNELS 3 Zrotation Xrotation Yrotation
                     End Site
                     {
                        OFFSET 20.093162 -0.720000 1.803492
                     }
                  }
               }
            }
         }
         JOINT RightShoulder
         {
            OFFSET -10.788001 -0.434702 -0.264000
            CHANNELS 3 Zrotation Xrotation Yrotation
            JOINT RightArm
            {
               OFFSET -12.339240 -0.004056 0.386548
               CHANNELS 3 Zrotation Xrotation Yrotation
               JOINT RightForeArm
               {
                  OFFSET -39.476518 0.118973 -1.709208
                  CHANNELS 3 Zrotation Xrotation Yrotation
                  JOINT RightHand
                  {
                     OFFSET -32.990522 0.102434 1.226592
                     CHANNELS 3 Zrotation Xrotation Yrotation
                     End Site
                     {
                        OFFSET -19.957442 -0.720000 1.803492
                     }
                  }
               }
            }
         }
      }
   }
   JOINT LeftUpLeg
   {
      OFFSET 10.734961 -10.400485 0.121982
      CHANNELS 3 Zrotation Xrotation Yrotation
      JOINT LeftLeg
      {
         OFFSET 0.000000 -53.307237 1.647240
         CHANNELS 3 Zrotation Xrotation Yrotation
         JOINT LeftFoot
         {
            OFFSET -0.304259 -50.510883 -1.752708
            CHANNELS 3 Zrotation Xrotation Yrotation
            JOINT LeftToes
            {
               OFFSET -0.048000 -5.298108 10.198920
               CHANNELS 3 Zrotation Xrotation Yrotation
               End Site
               {
                  OFFSET 0.096000 -0.056938 11.735748
               }
            }
         }
      }
   }
}
MOTION
Frames: 10
Frame Time: 0.016667
-213.737427 113.548640 -493.612969 27.538452 -38.911089 40.472846 -14.386998 35.691246 21.115374 28.095358 16.173260 -31.064363 -49.542955 11.772172 19.069121 17.504913 -7.160057 -49.694172 -22.642376 55.705619 126.421624 36.219137 -22.839084 -121.086277 -9.866446 24.788456 -14.853546 79.413640 69.279975 -53.184310 225.797475 102.782565 169.441612 38.978725 106.405331 -91.089069 -65.917124 -32.675454 -49.310592 -13.374959 56.824035 73.690604 104.252708 172.602022 181.727032 1.121143 249.801192 74.982602 9.726344 -7.304384 57.733977 6.435299 13.264725 6.832443 7.803424 28.429810 85.041504 -45.453727 61.504884 0.475604 19.278407 -4.577774 -48.525021
-213.053033 113.136023 -492.665436 28.269205 -38.249988 41.532516 -15.321619 36.349345 21.529793 28.548681 15.900177 -31.345736 -49.314372 11.795894 18.952491 17.476321 -7.373836 -49.803164 -20.994931 56.044359 125.382466 35.361727 -22.792922 -121.325839 -9.887724 23.896346 -15.313680 78.995086 68.668434 -52.011706 226.497979 102.740334 168.434869 39.114294 105.894884 -89.805137 -67.008165 -32.662173 -47.775585 -13.991727 57.027493 73.834263 105.652528 169.082016 181.587805 0.159947 246.106414 71.759695 9.171317 -7.541926 56.563570 6.087839 12.105045 6.846000 6.357382 26.377340 81.912177 -39.687197 61.215427 -1.821321 19.268288 -5.134791 -49.708034
-212.162015 112.381085 -491.451752 28.138361 -38.722982 42.783861 -15.655287 37.998214 22.025016 30.318732 15.319421 -31.500938 -49.186880 11.375117 19.066862 17.232219 -7.967409 -49.696105 -17.760655 56.174932 123.452186 34.819410 -23.634039 -121.671583 -10.204654 22.384909 -15.690977 78.477494 67.647553 -50.496381 228.869981 104.151676 166.559477 38.440807 106.003641 -88.054881 -68.353350 -34.229114 -44.955462 -15.192904 57.360113 75.220901 106.251276 161.950916 179.909969 -0.525463 239.997165 70.992945 8.867937 -6.983279 53.750102 6.683954 13.017985 7.352643 7.042720 23.222358 78.789777 -49.537767 61.805303 0.224143 20.340539 -3.246300 -48.913133
-211.078011 111.550024 -489.950287 29.386858 -39.112761 44.558819 -16.454781 40.187266 22.707784 31.282079 14.970759 -31.830512 -49.451048 11.268009 18.612563 16.924408 -8.797946 -49.780095 -15.069351 58.100943 121.776699 34.312910 -23.856891 -122.075001 -10.849756 20.340657 -15.934297 76.751252 67.485807 -48.118406 230.964923 105.060638 165.001620 37.199160 106.454748 -86.772164 -68.555688 -35.086733 -44.782268 -15.639644 57.009096 75.691227 108.259427 151.544986 177.368456 -1.171343 230.189068 71.663998 9.106541 -5.906027 51.904855 6.173977 12.477416 7.505023 6.689162 22.357315 77.007583 -43.558056 61.181133 -1.461050 20.607282 -3.286096 -50.321374
-209.750172 110.366305 -488.255875 31.128030 -39.981393 45.995273 -17.492494 42.941611 23.960884 31.831632 14.955905 -32.445089 -50.051213 11.121382 18.079934 16.485766 -9.788978 -49.643823 -11.784825 59.426068 119.928341 32.883553 -24.444424 -122.580285 -11.813968 17.494237 -16.030954 75.633437 67.482658 -44.461758 233.285494 107.588791 162.703152 34.964080 107.033395 -84.866084 -68.173819 -34.895631 -46.387759 -16.265764 57.383465 74.927667 113.091096 137.510095 174.031444 -2.248787 217.034725 70.606350 8.815215 -5.925750 50.328389 5.503795 13.773994 6.858556 6.520733 21.298746 76.906899 -46.380096 61.221677 -1.567553 21.194562 -2.933760 -51.489005
-208.252923 108.986786 -486.487725 32.224027 -40.876121 47.688774 -18.223655 45.435122 25.582497 32.727664 14.688279 -32.773901 -50.888427 11.124035 18.013403 15.765077 -11.146160 -49.152097 -9.028982 60.336573 118.880098 32.873373 -24.463680 -123.015163 -13.337314 13.490520 -15.921591 73.149359 69.000279 -40.857358 233.544576 108.531419 161.924306 32.634446 107.256428 -84.352003 -67.806327 -33.930826 -48.849673 -15.431834 56.820091 72.989211 118.390592 121.680954 169.887582 -1.928118 200.187121 71.882407 9.135711 -5.648596 49.547801 4.008894 14.154832 6.043776 7.822295 19.591225 77.391535 -49.685747 61.226943 -1.065673 21.593776 -2.878465 -52.561379
-206.565930 107.593010 -484.633133 32.719075 -41.381688 48.186841 -19.721478 47.630147 27.213989 33.274069 13.818136 -33.086478 -52.196750 11.149845 17.772506 14.634083 -13.123905 -48.691742 -7.557829 61.585698 117.721439 32.097374 -25.245812 -124.199299 -15.621228 8.466046 -15.608314 70.952620 70.487252 -38.304941 231.883747 108.880524 161.468691 30.619926 107.322414 -84.707480 -67.532587 -32.470467 -51.194170 -15.350437 55.731530 71.133524 123.463497 104.034101 164.822519 -1.616300 180.266669 72.333343 8.761019 -6.991104 50.509826 2.741217 14.031223 4.709281 8.796270 18.950008 78.255526 -49.417491 60.748167 -2.164959 21.675708 -3.538296 -54.303508
-204.861218 107.731732 -482.795708 33.993742 -43.624469 48.269196 -21.591367 50.537949 29.452090 33.653250 15.309046 -32.487911 -53.461974 11.525224 17.623036 13.398943 -14.971744 -47.620567 -8.952107 62.308858 114.439847 32.486692 -28.236782 -125.094423 -17.454004 5.166986 -15.002601 67.534021 76.402243 -36.949524 228.790970 108.850368 160.926948 28.630883 106.932308 -85.568357 -64.588516 -29.273054 -55.624811 -16.749623 48.179837 67.891390 130.287853 78.349708 159.491310 -1.855806 156.804601 70.738821 11.938683 -5.853767 47.829708 2.080063 16.336776 3.098073 10.252079 19.542266 78.456703 -49.648068 59.918408 -3.460333 21.492754 -4.537588 -55.868212
-203.178479 107.290438 -481.079667 36.052716 -46.348721 49.691692 -23.889457 53.824172 31.195670 33.159260 16.474471 -30.629666 -51.036642 11.645066 17.213803 12.169916 -16.664873 -46.474205 -10.971806 58.513889 112.702329 31.038128 -31.341061 -130.400892 -20.395826 4.300775 -13.782277 61.420947 80.532438 -39.447717 225.609508 107.130411 165.816967 27.596041 106.389779 -84.794551 -61.335058 -25.702022 -59.012315 -19.864550 31.472412 64.471515 142.631330 42.903717 156.339232 -5.558394 127.755779 65.205603 10.734168 -6.691237 48.540959 1.661447 20.174883 1.759083 11.747979 20.300613 78.333233 -49.947135 59.171240 -4.468368 21.002183 -5.765075 -56.986256
-201.419885 106.811493 -479.686196 38.577568 -49.316469 52.151264 -26.514301 58.175481 33.095716 31.497161 16.965357 -27.275252 -48.226330 10.884630 17.169564 10.748991 -18.558852 -44.869797 -14.424166 56.758831 117.036507 31.882145 -28.848769 -130.245956 -21.192325 7.275548 -12.647070 63.888667 76.691031 -40.158548 225.078420 100.917609 163.418696 25.684003 104.425034 -83.472302 -57.824347 -22.402317 -63.388322 -25.960736 33.164667 66.916483 140.721704 36.176510 155.507930 -3.705136 115.549261 64.416580 5.990937 -8.053899 41.477806 1.862140 24.369256 0.147622 13.178718 21.942522 77.435330 -49.958760 58.789337 -5.261331 20.370339 -6.940177 -57.729148
